# xmcd
#
# Track frame offsets:
#	150
#	21523
#	39196
#	51085
#	65770
#	90838
#	108764
#	127101
#	145915
#	161597
#	184445
#	203852
#	226174
#	239585
#	259800
#	278393
#	299450
#	319073
#
# Disc length: 4526 seconds
#
# Revision: 0
# Processed by: cddbd v1.5.2PL0 Copyright (c) Steve Scherf et al.
# Submitted via: EZCDAudioConverter 4.0.9.1
#
DISCID=0511ac12
DTITLE=周杰伦 - 简单爱
DYEAR=2002
DGENRE=Blues
TTITLE0=开不了口
TTITLE1=爸，我回来了
TTITLE2=忍者
TTITLE3=上海一九四三
TTITLE4=安静
TTITLE5=可爱女人
TTITLE6=完美主义
TTITLE7=龙卷风
TTITLE8=伊斯坦堡
TTITLE9=印地安老斑鸠
TTITLE10=夜来香
TTITLE11=Angeline
TTITLE12=望春风
TTITLE13=爱很简单
TTITLE14=是是非非
TTITLE15=飞机场的
TTITLE16=十七岁
TTITLE17=再见以前先说再见
EXTD=
EXTT0=
EXTT1=
EXTT2=
EXTT3=
EXTT4=
EXTT5=
EXTT6=
EXTT7=
EXTT8=
EXTT9=
EXTT10=
EXTT11=
EXTT12=
EXTT13=
EXTT14=
EXTT15=
EXTT16=
EXTT17=
PLAYORDER=
